# xmcd CD database file
#
# Track frame offsets:
#	150
#	29516
#	67775
#	89572
#	130963
#	152813
#	209199
#
# Disc length: 3613 seconds
#
# Revision: 0
# Processed by: cddbd v1.5.2PL0 Copyright (c) Steve Scherf et al.
# Submitted via: NeoAudio 9.9.9
#
DISCID=640e1b07
DTITLE=Stan Getz Quartet - Live At Montreux, 1972
DYEAR=2013
DGENRE=Jazz
TTITLE0=Captain Marvel
TTITLE1=Day Waves
TTITLE2=Lush Life
TTITLE3=Windows
TTITLE4=I Remember Clifford
TTITLE5=La Fiesta
TTITLE6=Time's Lie
EXTD=YEAR: 2013
EXTT0=
EXTT1=
EXTT2=
EXTT3=
EXTT4=
EXTT5=
EXTT6=
PLAYORDER=
